<svg version="1.2" xmlns="http://www.w3.org/2000/svg" viewBox="0 0 1985 570" width="1985" height="570">
	<title>vecteezy_get-it-on-google-play-download-on-the-app-store-popular_</title>
	<style>
		.s0 { fill: #ffffff } 
		.s1 { fill: #000000 } 
	</style>
	<g id="221353356351 1">
		<g id="&lt;Group&gt;">
			<g id="&lt;Group&gt;">
				<g id="&lt;Group&gt;">
					<path id="&lt;Path&gt;" class="s0" d="m1878 569.4h-1770.6c-59 0-106.8-47.8-106.8-106.8v-355.2c0-59 47.8-106.8 106.8-106.8h1770.6c59 0 106.8 47.8 106.8 106.8v355.2c0 59-47.8 106.8-106.8 106.8z"/>
				</g>
				<g id="&lt;Group&gt;">
					<g id="&lt;Group&gt;">
						<g id="&lt;Group&gt;">
							<path id="&lt;Path&gt;" class="s1" d="m486 364.5c-25.9-4-46-34-46-70.4 0-31.9 15.4-58.9 36.6-67.8 2.4-1 3.4-4 1.9-6.1-15.6-23-39.8-37.7-73-37.7-27.7 0-36.6 17.6-66.8 18.6-30.2-1-39.2-18.6-66.8-18.6-134.1 0-120.7 239.4 5.4 293.7 17.7 6 27.8-15.7 61.4-16.8 33.6 1.1 43.7 22.8 61.3 16.8 44-18.9 74.2-60.3 89.3-106.3 0.8-2.4-0.8-5-3.3-5.4z"/>
						</g>
						<g id="&lt;Group&gt;">
							<path id="&lt;Path&gt;" class="s1" d="m337.3 177.5c8.6-1 36.7-5.7 53.5-25.5 16.7-19.7 16.7-48.3 16.3-56.9-0.1-1.4-1.3-2.5-2.7-2.3-8.6 1-36.8 5.7-53.5 25.4-16.8 19.8-16.8 48.3-16.4 56.9 0.1 1.5 1.4 2.5 2.8 2.4z"/>
						</g>
					</g>
					<g id="&lt;Group&gt;">
						<g id="&lt;Group&gt;">
							<g id="&lt;Group&gt;">
								<path id="&lt;Compound Path&gt;" fill-rule="evenodd" class="s1" d="m741.1 400.9h-69.3l-16 48.6h-34.7l66.8-188.2h37.9l66.8 188.2h-35.5zm-61.4-25.9h53.5l-26.2-80.4h-0.9z"/>
							</g>
							<g id="&lt;Group&gt;">
								<path id="&lt;Compound Path&gt;" fill-rule="evenodd" class="s1" d="m930.6 325.1q16.1 19.7 16.1 53.2 0 33.4-15.9 53.1-16 19.7-43 19.7-31.7 0-44.7-25.2h-0.7v69.4h-32.4v-188.3h31.7v24h0.6q5.9-11.8 18-18.7 12.2-6.9 27-6.9 27.3 0 43.3 19.7zm-27 86.6q9.8-12.5 9.8-33.4 0-20.8-9.8-33.4-9.6-12.5-25.8-12.5-15.9 0-25.7 12.7-9.8 12.6-9.8 33.2 0 20.6 9.8 33.3 9.8 12.5 25.7 12.5 16.2 0 25.8-12.4z"/>
							</g>
							<g id="&lt;Group&gt;">
								<path id="&lt;Compound Path&gt;" fill-rule="evenodd" class="s1" d="m1089.1 325.1q16.1 19.7 16.1 53.2 0 33.4-16 53.1-15.9 19.7-42.9 19.7-31.7 0-44.7-25.2h-0.7v69.4h-32.4v-188.3h31.7v24h0.6q5.9-11.8 18-18.7 12.1-6.9 27-6.9 27.3 0 43.3 19.7zm-27 86.6q9.8-12.5 9.8-33.4 0-20.8-9.8-33.4-9.6-12.5-25.8-12.5-15.9 0-25.7 12.7-9.8 12.6-9.8 33.2 0 20.6 9.8 33.3 9.8 12.5 25.7 12.5 16.2 0 25.8-12.4z"/>
							</g>
							<g id="&lt;Group&gt;">
								<path id="&lt;Compound Path&gt;" class="s1" d="m1214.3 396.6q1.6 12.9 13.5 20.9 11.6 7.8 28.9 7.8 17 0 27.8-7.6 10.7-7.5 10.7-19.3 0-10.2-7.8-16.4-7.8-6.4-25.6-10.6l-24.4-5.7q-51.1-11.8-51.1-51.5 0-25 19.7-40.6 19.4-15.4 50.3-15.4 31.1 0 50.1 15.4 18.9 15.2 19.6 40.2h-32.1q-1.2-13.2-11.5-20.8-10-7.4-26.3-7.4-15.9 0-25.9 7.2-9.7 7.1-9.7 18.9 0 9.4 7.7 15.2 7.5 5.9 24.9 10.1l21.6 4.9q28.6 6.6 41.5 19.1 12.9 12.5 12.9 33.5 0 26.7-20.1 42.5-19.9 15.7-54.1 15.7-32.6 0-52.3-15-19.8-15.2-20.9-41.1z"/>
							</g>
							<g id="&lt;Group&gt;">
								<path id="&lt;Compound Path&gt;" class="s1" d="m1393.3 275.2v31.8h27v25.2h-27v75.1q0 17.3 17.2 17.3 4.4 0 9.7-0.6v24.9q-5.9 1.3-17.1 1.3-22.7 0-32.5-8.9-9.8-9-9.8-29.6v-79.5h-19.4v-25.2h19.4v-31.8z"/>
							</g>
							<g id="&lt;Group&gt;">
								<path id="&lt;Compound Path&gt;" fill-rule="evenodd" class="s1" d="m1453.2 431.9q-18.6-19.7-18.6-53.7 0-33.7 18.7-53.5 18.5-19.7 50-19.7 31.5 0 50 19.7 18.7 19.7 18.7 53.5 0 34-18.5 53.7-18.5 19.7-50.2 19.7-31.6 0-50.1-19.7zm76.4-18.7q9.4-12.4 9.4-34.9 0-22.3-9.5-34.8-9.4-12.5-26.2-12.5-16.7 0-26.1 12.5-9.6 12.5-9.6 34.8 0 22.3 9.6 34.9 9.4 12.5 26.1 12.5 16.8 0 26.3-12.5z"/>
							</g>
							<g id="&lt;Group&gt;">
								<path id="&lt;Compound Path&gt;" class="s1" d="m1593.7 307h31.1v24.8h0.7q3.4-12.6 12.5-19.5 9-6.9 21.7-6.9 6 0 9.9 1.3v29.6q-4.3-1.9-12.9-1.9-14.3 0-22.5 8.7-8.1 8.6-8.1 23.7v82.7h-32.4z"/>
							</g>
							<g id="&lt;Group&gt;">
								<path id="&lt;Compound Path&gt;" fill-rule="evenodd" class="s1" d="m1807.2 407.2q-3.1 19.8-20.5 32-17.3 12.4-42.3 12.4-31.5 0-49.9-19.5-18.3-19.6-18.3-53.3 0-33.6 18.3-53.7 18.1-20.1 48.8-20.1 30 0 47.6 19.1 17.6 19 17.6 51.4v10.7h-99.8v1.9q0 17.2 10 27.7 10.1 10.5 26.4 10.5 11.7 0 20.2-5.2 8.5-5.1 11.4-13.9zm-87.7-67.5q-9.5 9.5-10.6 24.8h67.6q-0.5-15.4-9.6-24.8-9.2-9.4-23.7-9.4-14.2 0-23.7 9.4z"/>
							</g>
						</g>
						<g id="&lt;Group&gt;">
							<g id="&lt;Group&gt;">
								<path id="&lt;Compound Path&gt;" fill-rule="evenodd" class="s1" d="m713.6 94q13.7 14.3 13.7 40.2 0 26-13.7 40.5-13.7 14.5-38.2 14.5h-39.2v-109.6h39.2q24.5 0 38.2 14.4zm-3.6 40.3q0-19.3-9.4-29.7-9.3-10.3-26.8-10.3h-20.6v80.1h20.6q17.5 0 26.8-10.3 9.4-10.4 9.4-29.8z"/>
							</g>
							<g id="&lt;Group&gt;">
								<path id="&lt;Compound Path&gt;" fill-rule="evenodd" class="s1" d="m805.5 117q10.5 11.5 10.5 30.9 0 19.5-10.5 30.9-10.5 11.4-28.4 11.4-17.9 0-28.5-11.4-10.5-11.4-10.5-30.9 0-19.3 10.6-30.8 10.5-11.5 28.4-11.5 17.8 0 28.4 11.4zm-6.2 30.9q0-13.5-5.8-21-5.9-7.6-16.4-7.6-10.5 0-16.4 7.6-5.9 7.6-5.9 21 0 13.5 5.9 21.1 5.9 7.5 16.4 7.5 10.5 0 16.4-7.5 5.8-7.5 5.8-21.1z"/>
							</g>
							<g id="&lt;Group&gt;">
								<path id="&lt;Path&gt;" class="s1" d="m905.6 172h-0.3l-17.5-65.3h-15.8l-17.5 65.3h-0.3l-15.3-65.3h-16.4l22.8 82.5h16.9l17.4-62.1h0.4l17.5 62.1h17l22.7-82.5h-16.2z"/>
							</g>
							<g id="&lt;Group&gt;">
								<path id="&lt;Path&gt;" class="s1" d="m990.4 105.8q-19.1 0-26.8 14.8h-0.3v-13.9h-15.7v82.5h16.5v-47.6q0-9.8 5.7-15.8 5.6-5.9 15-5.9 9 0 13.8 5.1 4.8 5 4.8 14.4v49.8h16.4v-52.9q0-14.2-7.8-22.4-7.9-8.1-21.6-8.1z"/>
							</g>
							<g id="&lt;Group&gt;">
								<path id="&lt;Path&gt;" class="s1" d="m1037 189.2h16.5v-114.5h-16.5z"/>
							</g>
							<g id="&lt;Group&gt;">
								<path id="&lt;Compound Path&gt;" fill-rule="evenodd" class="s1" d="m1134.7 117q10.6 11.5 10.6 30.9 0 19.5-10.6 30.9-10.5 11.4-28.4 11.4-17.9 0-28.5-11.4-10.5-11.4-10.5-30.9 0-19.3 10.6-30.8 10.6-11.5 28.4-11.5 17.9 0 28.4 11.4zm-6.1 30.9q0-13.5-5.9-21-5.9-7.6-16.4-7.6-10.5 0-16.4 7.6-5.9 7.6-5.9 21 0 13.5 5.9 21.1 5.9 7.5 16.4 7.5 10.5 0 16.4-7.5 5.9-7.5 5.9-21.1z"/>
							</g>
							<g id="&lt;Group&gt;">
								<path id="&lt;Compound Path&gt;" fill-rule="evenodd" class="s1" d="m1224.9 132.6v56.6h-15.8v-13.8h-0.3q-3.5 6.7-10.5 10.7-7.1 3.9-15.6 3.9-12.4 0-20.1-6.7-7.8-6.7-7.8-17.7 0-10.8 8.2-17 8-6.1 23.4-7.1l22.2-1.3v-6.4q0-7-4.6-10.8-4.4-3.8-12.7-3.8-6.7 0-11.3 3.2-4.6 3.2-5.6 8.6h-15.5q0.4-10.9 9.7-18.1 9.2-7.3 23.1-7.3 15.2 0 24.1 7.4 9.1 7.4 9.1 19.6zm-16.3 19.1l-20 1.4q-17.1 1.1-17.1 12.2 0 5.3 4.2 8.4 4.3 3.2 11.4 3.2 9.2 0 15.4-5.3 6.1-5.3 6.1-13.4z"/>
							</g>
							<g id="&lt;Group&gt;">
								<path id="&lt;Compound Path&gt;" fill-rule="evenodd" class="s1" d="m1298.7 74.7h16.4v114.5h-16v-14h-0.3q-7.7 14.8-26.3 14.8-15.6 0-25.2-11.5-9.6-11.6-9.6-30.6 0-18.9 9.6-30.6 9.6-11.4 25-11.4 18.5 0 26 14.5h0.4zm0 73.3q0-12.7-6-20.4-6.2-7.7-16.1-7.7-9.9 0-16 7.6-6.1 7.7-6.1 20.5 0 12.8 6.1 20.4 6 7.6 16 7.6 10 0 16.1-7.7 6-7.7 6-20.3z"/>
							</g>
							<g id="&lt;Group&gt;">
								<path id="&lt;Compound Path&gt;" fill-rule="evenodd" class="s1" d="m1432.1 117q10.5 11.5 10.5 30.9 0 19.5-10.5 30.9-10.5 11.4-28.4 11.4-18 0-28.5-11.4-10.6-11.4-10.6-30.9 0-19.3 10.7-30.8 10.5-11.5 28.4-11.5 17.8 0 28.4 11.4zm-6.2 30.9q0-13.5-5.8-21-6-7.6-16.4-7.6-10.5 0-16.4 7.6-6 7.6-6 21 0 13.5 6 21.1 5.9 7.5 16.4 7.5 10.4 0 16.4-7.5 5.8-7.5 5.8-21.1z"/>
							</g>
							<g id="&lt;Group&gt;">
								<path id="&lt;Path&gt;" class="s1" d="m1498.7 105.8q-19.2 0-26.8 14.8h-0.3v-13.9h-15.8v82.5h16.5v-47.6q0-9.8 5.7-15.8 5.6-5.9 15-5.9 9 0 13.8 5.1 4.8 5 4.8 14.4v49.8h16.4v-52.9q0-14.2-7.8-22.4-7.9-8.1-21.5-8.1z"/>
							</g>
							<g id="&lt;Group&gt;">
								<path id="&lt;Path&gt;" class="s1" d="m1601.7 88.2h-16.4v18.5h-11.4v13h11.4v47.8q0 12 5.2 17 5.3 5.2 17.7 5.2 5.9 0 9.2-0.8v-13q-2.6 0.4-5.6 0.4-10.1 0-10.1-10.5v-46.1h15.8v-13h-15.8z"/>
							</g>
							<g id="&lt;Group&gt;">
								<path id="&lt;Path&gt;" class="s1" d="m1675.6 105.8q-19.3 0-26.8 14.8h-0.4v-45.9h-16.3v114.5h16.4v-47.3q0-9.8 6-15.9 5.8-6.1 15.4-6.1 9 0 14.2 5.3 5.1 5.2 5.1 14.5v49.5h16.4v-52.7q0-14-8.2-22.3-8.2-8.4-21.8-8.4z"/>
							</g>
							<g id="&lt;Group&gt;">
								<path id="&lt;Compound Path&gt;" fill-rule="evenodd" class="s1" d="m1735 152.1v1q0 10.7 6.2 17.2 6.1 6.5 16.3 6.5 7.2 0 12.5-3.2 5.2-3.2 6.9-8.6h15.7q-1.8 11.1-11.6 18.2-9.9 7-23.8 7-17.9 0-28.4-11.4-10.4-11.2-10.4-30.6 0-19.3 10.4-30.9 10.4-11.7 27.7-11.7 17 0 27 11.1 9.9 10.9 9.9 29.6v5.8zm0.1-11.7h41.8q-0.3-9.6-5.9-15.5-5.6-5.8-14.6-5.8-8.8 0-14.7 5.9-5.9 5.9-6.6 15.4z"/>
							</g>
						</g>
					</g>
				</g>
			</g>
		</g>
	</g>
</svg>