<svg width="1000" height="300" viewBox="0 0 1000 300" fill="none" xmlns="http://www.w3.org/2000/svg">
  <path d="M261.5 0C117.1 0 0 117.1 0 261.5C0 405.9 117.1 523 261.5 523C405.9 523 523 405.9 523 261.5C523 117.1 405.9 0 261.5 0ZM261.5 471.9C145.3 471.9 51.1 377.7 51.1 261.5C51.1 145.3 145.3 51.1 261.5 51.1C377.7 51.1 471.9 145.3 471.9 261.5C471.9 377.7 377.7 471.9 261.5 471.9Z" fill="#2F6BFF"/>
  <path d="M261.5 51.1C145.3 51.1 51.1 145.3 51.1 261.5C51.1 377.7 145.3 471.9 261.5 471.9C377.7 471.9 471.9 377.7 471.9 261.5C471.9 145.3 377.7 51.1 261.5 51.1ZM261.5 420.8C173.4 420.8 102.2 349.6 102.2 261.5C102.2 173.4 173.4 102.2 261.5 102.2C349.6 102.2 420.8 173.4 420.8 261.5C420.8 349.6 349.6 420.8 261.5 420.8Z" fill="#2F6BFF"/>
  <path d="M261.5 102.2C173.4 102.2 102.2 173.4 102.2 261.5C102.2 349.6 173.4 420.8 261.5 420.8C349.6 420.8 420.8 349.6 420.8 261.5C420.8 173.4 349.6 102.2 261.5 102.2ZM261.5 369.7C201.5 369.7 153.3 321.5 153.3 261.5C153.3 201.5 201.5 153.3 261.5 153.3C321.5 153.3 369.7 201.5 369.7 261.5C369.7 321.5 321.5 369.7 261.5 369.7Z" fill="#2F6BFF"/>
  <path d="M261.5 153.3C201.5 153.3 153.3 201.5 153.3 261.5C153.3 321.5 201.5 369.7 261.5 369.7C321.5 369.7 369.7 321.5 369.7 261.5C369.7 201.5 321.5 153.3 261.5 153.3ZM261.5 318.6C229.6 318.6 204.4 293.4 204.4 261.5C204.4 229.6 229.6 204.4 261.5 204.4C293.4 204.4 318.6 229.6 318.6 261.5C318.6 293.4 293.4 318.6 261.5 318.6Z" fill="#2F6BFF"/>
  <path d="M261.5 204.4C229.6 204.4 204.4 229.6 204.4 261.5C204.4 293.4 229.6 318.6 261.5 318.6C293.4 318.6 318.6 293.4 318.6 261.5C318.6 229.6 293.4 204.4 261.5 204.4ZM261.5 267.5C258.2 267.5 255.5 264.8 255.5 261.5C255.5 258.2 258.2 255.5 261.5 255.5C264.8 255.5 267.5 258.2 267.5 261.5C267.5 264.8 264.8 267.5 261.5 267.5Z" fill="#2F6BFF"/>
  <path d="M261.5 255.5C258.2 255.5 255.5 258.2 255.5 261.5C255.5 264.8 258.2 267.5 261.5 267.5C264.8 267.5 267.5 264.8 267.5 261.5C267.5 258.2 264.8 255.5 261.5 255.5Z" fill="#2F6BFF"/>
  <path d="M261.5 0C117.1 0 0 117.1 0 261.5C0 405.9 117.1 523 261.5 523C405.9 523 523 405.9 523 261.5C523 117.1 405.9 0 261.5 0ZM261.5 471.9C145.3 471.9 51.1 377.7 51.1 261.5C51.1 145.3 145.3 51.1 261.5 51.1C377.7 51.1 471.9 145.3 471.9 261.5C471.9 377.7 377.7 471.9 261.5 471.9Z" fill="#2F6BFF"/>
  <path d="M261.5 51.1C145.3 51.1 51.1 145.3 51.1 261.5C51.1 377.7 145.3 471.9 261.5 471.9C377.7 471.9 471.9 377.7 471.9 261.5C471.9 145.3 377.7 51.1 261.5 51.1ZM261.5 420.8C173.4 420.8 102.2 349.6 102.2 261.5C102.2 173.4 173.4 102.2 261.5 102.2C349.6 102.2 420.8 173.4 420.8 261.5C420.8 349.6 349.6 420.8 261.5 420.8Z" fill="#2F6BFF"/>
  <path d="M261.5 102.2C173.4 102.2 102.2 173.4 102.2 261.5C102.2 349.6 173.4 420.8 261.5 420.8C349.6 420.8 420.8 349.6 420.8 261.5C420.8 173.4 349.6 102.2 261.5 102.2ZM261.5 369.7C201.5 369.7 153.3 321.5 153.3 261.5C153.3 201.5 201.5 153.3 261.5 153.3C321.5 153.3 369.7 201.5 369.7 261.5C369.7 321.5 321.5 369.7 261.5 369.7Z" fill="#2F6BFF"/>
  <path d="M261.5 153.3C201.5 153.3 153.3 201.5 153.3 261.5C153.3 321.5 201.5 369.7 261.5 369.7C321.5 369.7 369.7 321.5 369.7 261.5C369.7 201.5 321.5 153.3 261.5 153.3ZM261.5 318.6C229.6 318.6 204.4 293.4 204.4 261.5C204.4 229.6 229.6 204.4 261.5 204.4C293.4 204.4 318.6 229.6 318.6 261.5C318.6 293.4 293.4 318.6 261.5 318.6Z" fill="#2F6BFF"/>
  <path d="M261.5 204.4C229.6 204.4 204.4 229.6 204.4 261.5C204.4 293.4 229.6 318.6 261.5 318.6C293.4 318.6 318.6 293.4 318.6 261.5C318.6 229.6 293.4 204.4 261.5 204.4ZM261.5 267.5C258.2 267.5 255.5 264.8 255.5 261.5C255.5 258.2 258.2 255.5 261.5 255.5C264.8 255.5 267.5 258.2 267.5 261.5C267.5 264.8 264.8 267.5 261.5 267.5Z" fill="#2F6BFF"/>
  <path d="M261.5 255.5C258.2 255.5 255.5 258.2 255.5 261.5C255.5 264.8 258.2 267.5 261.5 267.5C264.8 267.5 267.5 264.8 267.5 261.5C267.5 258.2 264.8 255.5 261.5 255.5Z" fill="#2F6BFF"/>
  <path d="M523 261.5L392.25 130.75L261.5 0L130.75 130.75L0 261.5L130.75 392.25L261.5 523L392.25 392.25L523 261.5ZM261.5 471.9L51.1 261.5L261.5 51.1L471.9 261.5L261.5 471.9Z" fill="#2F6BFF"/>
  <path d="M471.9 261.5L261.5 51.1L51.1 261.5L261.5 471.9L471.9 261.5ZM261.5 420.8L102.2 261.5L261.5 102.2L420.8 261.5L261.5 420.8Z" fill="#2F6BFF"/>
  <path d="M420.8 261.5L261.5 102.2L102.2 261.5L261.5 420.8L420.8 261.5ZM261.5 369.7L153.3 261.5L261.5 153.3L369.7 261.5L261.5 369.7Z" fill="#2F6BFF"/>
  <path d="M369.7 261.5L261.5 153.3L153.3 261.5L261.5 369.7L369.7 261.5ZM261.5 318.6L204.4 261.5L261.5 204.4L318.6 261.5L261.5 318.6Z" fill="#2F6BFF"/>
  <path d="M318.6 261.5L261.5 204.4L204.4 261.5L261.5 318.6L318.6 261.5ZM261.5 267.5L255.5 261.5L261.5 255.5L267.5 261.5L261.5 267.5Z" fill="#2F6BFF"/>
  <path d="M267.5 261.5L261.5 255.5L255.5 261.5L261.5 267.5L267.5 261.5Z" fill="#2F6BFF"/>
  <path d="M523 261.5L392.25 130.75L261.5 0L130.75 130.75L0 261.5L130.75 392.25L261.5 523L392.25 392.25L523 261.5ZM261.5 471.9L51.1 261.5L261.5 51.1L471.9 261.5L261.5 471.9Z" fill="#2F6BFF"/>
  <path d="M471.9 261.5L261.5 51.1L51.1 261.5L261.5 471.9L471.9 261.5ZM261.5 420.8L102.2 261.5L261.5 102.2L420.8 261.5L261.5 420.8Z" fill="#2F6BFF"/>
  <path d="M420.8 261.5L261.5 102.2L102.2 261.5L261.5 420.8L420.8 261.5ZM261.5 369.7L153.3 261.5L261.5 153.3L369.7 261.5L261.5 369.7Z" fill="#2F6BFF"/>
  <path d="M369.7 261.5L261.5 153.3L153.3 261.5L261.5 369.7L369.7 261.5ZM261.5 318.6L204.4 261.5L261.5 204.4L318.6 261.5L261.5 318.6Z" fill="#2F6BFF"/>
  <path d="M318.6 261.5L261.5 204.4L204.4 261.5L261.5 318.6L318.6 261.5ZM261.5 267.5L255.5 261.5L261.5 255.5L267.5 261.5L261.5 267.5Z" fill="#2F6BFF"/>
  <path d="M267.5 261.5L261.5 255.5L255.5 261.5L261.5 267.5L267.5 261.5Z" fill="#2F6BFF"/>
  <path d="M600.5 150.5H650.5L700.5 250.5L750.5 150.5H800.5V350.5H750.5V225.5L700.5 325.5L650.5 225.5V350.5H600.5V150.5Z" fill="black"/>
  <path d="M825.5 150.5H875.5V350.5H825.5V150.5Z" fill="black"/>
  <path d="M900.5 150.5H950.5V300.5H1000.5V350.5H900.5V150.5Z" fill="black"/>
  <path d="M550.5 150.5H500.5V350.5H550.5V150.5Z" fill="black"/>
  <path d="M450.5 150.5H400.5V350.5H450.5V150.5Z" fill="black"/>
</svg>
