<svg version="1.2" xmlns="http://www.w3.org/2000/svg" viewBox="0 0 1986 570" width="1986" height="570">
	<title>vecteezy_get-it-on-google-play-download-on-the-app-store-popular_</title>
	<style>
		.s0 { fill: #ffffff } 
		.s1 { fill: #ea4335 } 
		.s2 { fill: #4285f4 } 
		.s3 { fill: #34a853 } 
		.s4 { fill: #fbbc04 } 
		.s5 { fill: #000000 } 
	</style>
	<g id="221353356351 1">
		<g id="&lt;Group&gt;">
			<g id="&lt;Group&gt;">
				<g id="&lt;Group&gt;">
					<path id="&lt;Path&gt;" class="s0" d="m1878.4 569.4h-1770.6c-59 0-106.8-47.8-106.8-106.8v-355.2c0-59 47.8-106.8 106.8-106.8h1770.6c59 0 106.8 47.8 106.8 106.8v355.2c0 59-47.8 106.8-106.8 106.8z"/>
				</g>
				<g id="&lt;Group&gt;">
					<g id="&lt;Group&gt;">
						<g id="&lt;Group&gt;">
							<path id="&lt;Path&gt;" class="s1" d="m377.6 369.9l-177.4 101.8c-27 15.5-59.6 1.7-69.5-25.1l161.8-161.8z"/>
						</g>
						<g id="&lt;Group&gt;">
							<path id="&lt;Path&gt;" class="s2" d="m292.5 284.8l-161.8 161.8c-1.9-5.2-2.9-10.8-2.9-16.8v-289.6c0-6.1 1.1-11.8 3-17.1z"/>
						</g>
						<g id="&lt;Group&gt;">
							<path id="&lt;Path&gt;" class="s3" d="m377.5 199.8l-85 85-161.7-161.7c10-26.5 42.4-40.2 69.4-24.8z"/>
						</g>
						<g id="&lt;Group&gt;">
							<path id="&lt;Path&gt;" class="s4" d="m452.7 326.8l-75.1 43.1-85.1-85.1 85-85 75.2 43.1c32.4 18.6 32.4 65.3 0 83.9z"/>
						</g>
					</g>
					<g id="&lt;Group&gt;">
						<g id="&lt;Group&gt;">
							<g id="&lt;Group&gt;">
								<path id="&lt;Path&gt;" class="s5" d="m701.8 355.1h46.5q-1.9 19.7-18.5 33.8-16.5 14-37.2 14-24.4 0-45.3-18.7-22.3-20.2-22.3-51.3 0-30.2 20-50.2 20-20.4 49.6-20.4 33 0 55.9 30.5l20-19.2q-17.5-20-35.6-28.9-18.9-9-40.8-9-40.7 0-69 28.4-28.4 28.2-28.4 68.8 0 39.7 27.9 68.1 27.9 28.2 67 28.2 40.1 0 66-29.2 11.5-13 16.3-28 5-16.2 5-37.2v-6.1h-77.1z"/>
							</g>
							<g id="&lt;Group&gt;">
								<path id="&lt;Compound Path&gt;" fill-rule="evenodd" class="s5" d="m901.6 322.9q18.1 18 18.1 44.2 0 26.4-18.2 44.3-18.4 17.7-45 17.7-26.5 0-44.3-18.1-17.9-17.9-17.9-44.9 0-25.5 18.2-43.3 18.2-17.9 44.4-17.9 26.4 0 44.7 18zm-9.7 44.3q0-17.2-9.5-27.4-9.6-10.4-25.5-10.4-15.5 0-25.2 10.4-9.6 10.4-9.6 26.8 0 17.6 9.4 27.9 9.6 10.3 25.4 10.3 16 0 25.5-10.2 9.5-10.3 9.5-27.4z"/>
							</g>
							<g id="&lt;Group&gt;">
								<path id="&lt;Compound Path&gt;" fill-rule="evenodd" class="s5" d="m1042.5 322.9q18.1 18 18.1 44.2 0 26.4-18.3 44.3-18.3 17.7-45 17.7-26.4 0-44.3-18.1-17.8-17.9-17.8-44.9 0-25.5 18.2-43.3 18.2-17.9 44.4-17.9 26.3 0 44.7 18zm-9.7 44.3q0-17.2-9.5-27.4-9.7-10.4-25.5-10.4-15.6 0-25.2 10.4-9.7 10.4-9.7 26.8 0 17.6 9.4 27.9 9.7 10.3 25.5 10.3 15.9 0 25.5-10.2 9.5-10.3 9.5-27.4z"/>
							</g>
							<g id="&lt;Group&gt;">
								<path id="&lt;Compound Path&gt;" fill-rule="evenodd" class="s5" d="m1168.1 308.2h27.2v114.7q0 8.4-0.6 14.7-0.5 6.3-1.5 11.2-2.9 13.2-11.3 22.8-16 18.3-43.9 18.3-23.5 0-38.7-12.6-15.7-13.1-18.1-36.1h27.3q1.5 8.7 5.2 13.4 8.4 10.9 24.6 10.9 29.8 0 29.8-36.5v-16.4q-16.2 16.5-37.3 16.5-24 0-39.3-17.4-15.5-17.6-15.5-44 0-25.7 14.4-43.7 15.4-19.1 40.8-19.1 22.2 0 36.9 16.5zm1.1 59.1q0-17.2-9.2-27.4-9.3-10.5-23.8-10.5-15.4 0-24.3 11.4-8.1 10.3-8.1 26.6 0 16 8.1 26.3 8.8 11.2 24.3 11.2 15.6 0 24.7-11.3 8.3-10.3 8.3-26.3z"/>
							</g>
							<g id="&lt;Group&gt;">
								<path id="&lt;Path&gt;" class="s5" d="m1210.7 425.7h27.2v-190h-27.2z"/>
							</g>
							<g id="&lt;Group&gt;">
								<path id="&lt;Compound Path&gt;" fill-rule="evenodd" class="s5" d="m1344.1 382.1l22.9 12.8q-5.3 9.1-11.2 15.5-5.9 6.5-12.7 10.7-6.8 4.1-14.6 6.1-7.8 1.9-17 1.9-26.3 0-42.3-16.9-15.9-17-15.9-45.1 0-27.9 15.5-45.2 15.5-17 41.2-17 26 0 41.1 16.5 14.9 16.5 14.9 45.5l-0.1 6.4h-84.2q1.1 14.5 9.4 23.1 8.3 8.4 21.4 8.4 10.1 0 16.7-4.8 6.5-4.8 14.9-17.9zm-60.6-31h54.5q-5.6-21.7-27.4-21.7-4.9 0-9.3 1.5-4.3 1.5-7.9 4.4-3.5 2.8-6.1 6.8-2.5 4-3.8 9z"/>
							</g>
							<g id="&lt;Group&gt;">
								<path id="&lt;Compound Path&gt;" fill-rule="evenodd" class="s5" d="m1523.9 254.9q16.1 15.7 16.1 39.6 0 25.6-17.2 40.6-17.1 14.9-46.2 14.9h-13v75.7h-28.1v-186.3h31.8q23.4 0 35.4 3.2 12 3.3 21.2 12.3zm-11.1 39.3q0-28.9-39.9-28.9h-9.3v58.7h10.5q38.7 0 38.7-29.8z"/>
							</g>
							<g id="&lt;Group&gt;">
								<path id="&lt;Path&gt;" class="s5" d="m1553.3 425.7h27.2v-186.3h-27.2z"/>
							</g>
							<g id="&lt;Group&gt;">
								<path id="&lt;Compound Path&gt;" fill-rule="evenodd" class="s5" d="m1686 308.2h27.3v117.5h-27.3v-12.3q-16.7 15.7-36 15.7-24.4 0-40.4-17.6-15.8-18-15.8-44.9 0-26.5 15.8-44.1 15.9-17.6 39.6-17.6 20.6 0 36.8 16.9zm1.7 59q0-16.5-9.3-27.3-9.2-10.5-24.1-10.5-14 0-23.4 10.7-9.3 10.7-9.3 26.5 0 16.9 9.1 27.5 9.2 10.8 23.4 10.8 15.1 0 24.3-10.4 9.3-10.7 9.3-27.3z"/>
							</g>
							<g id="&lt;Group&gt;">
								<path id="&lt;Path&gt;" class="s5" d="m1827.7 308.2l-33.5 67.5-36-67.5h-31.5l52.8 95.7-45.8 85.8h31l93.7-181.5z"/>
							</g>
						</g>
						<g id="&lt;Group&gt;">
							<g id="&lt;Group&gt;">
								<path id="&lt;Compound Path&gt;" class="s5" d="m650 127.2h39.1v3.1q0 10.7-2.6 18.9-2.4 7.5-8.2 14.2-13.2 14.8-33.5 14.8-19.8 0-33.9-14.4-14.2-14.3-14.2-34.5 0-20.5 14.4-34.8 14.4-14.4 35-14.4 11.1 0 20.7 4.5 9.2 4.5 18 14.7l-10.1 9.7q-11.7-15.5-28.4-15.5-14.9 0-25.1 10.4-10.2 10.1-10.2 25.4 0 15.8 11.4 26 10.5 9.5 22.9 9.5 10.5 0 18.9-7.1 8.4-7.1 9.4-17.1h-23.6z"/>
							</g>
							<g id="&lt;Group&gt;">
								<path id="&lt;Compound Path&gt;" class="s5" d="m755.9 95.3h-37.9v22.7h36.8v13.4h-36.8v31.6h37.9v13.4h-52.1v-94.5h52.1z"/>
							</g>
							<g id="&lt;Group&gt;">
								<path id="&lt;Compound Path&gt;" class="s5" d="m806.6 95.3v81.1h-14.3v-81.1h-21.7v-13.4h57.6v13.4z"/>
							</g>
							<g id="&lt;Group&gt;">
								<path id="&lt;Compound Path&gt;" class="s5" d="m889.8 81.9v94.5h-14.3v-94.5z"/>
							</g>
							<g id="&lt;Group&gt;">
								<path id="&lt;Compound Path&gt;" class="s5" d="m940 95.3v81.1h-14.3v-81.1h-21.7v-13.4h57.6v13.4z"/>
							</g>
							<g id="&lt;Group&gt;">
								<path id="&lt;Compound Path&gt;" fill-rule="evenodd" class="s5" d="m996 128.7q0-20 14.6-34.3 14.6-14.3 35-14.3 20.2 0 34.6 14.5 14.5 14.4 14.5 34.6 0 20.4-14.5 34.6-14.7 14.3-35.3 14.3-18.3 0-32.9-12.7-16-14-16-36.7zm14.3 0.2q0 15.6 10.6 25.7 10.4 10.1 24.1 10.1 14.9 0 25.1-10.2 10.2-10.4 10.2-25.4 0-15.1-10-25.3-10.1-10.3-24.9-10.3-14.7 0-24.9 10.3-10.2 10.2-10.2 25.1z"/>
							</g>
							<g id="&lt;Group&gt;">
								<path id="&lt;Compound Path&gt;" class="s5" d="m1164.1 147.5v-65.6h14.2v94.5h-14.2l-43.4-66.2v66.2h-14.2v-94.5h14.2z"/>
							</g>
						</g>
					</g>
				</g>
			</g>
		</g>
	</g>
</svg>