<svg version="1.2" xmlns="http://www.w3.org/2000/svg" viewBox="0 0 669 481" width="669" height="481">
	<title>vechain-logo</title>
	<defs>
		<clipPath clipPathUnits="userSpaceOnUse" id="cp1">
			<path d="m83.38 395.51c-0.72 0-1.36 0.4-1.68 1.04l-27.83 56.5c-2.49 5.07-9.7 5.07-12.19 0l-27.9-56.48c-0.32-0.64-0.96-1.04-1.68-1.04h-13.22c-1.38 0-2.29 1.46-1.68 2.69l38.2 77.87c2.49 5.07 9.7 5.07 12.19 0l38.61-78.68c0.42-0.86-0.2-1.88-1.18-1.88h-1.64z"/>
		</clipPath>
		<linearGradient id="g1" x2="1" gradientUnits="userSpaceOnUse" gradientTransform="matrix(89.564,0,0,85.139,1.98,445.55)">
			<stop offset="0" stop-color="#9d4abe"/>
			<stop offset=".03" stop-color="#9155c4"/>
			<stop offset=".15" stop-color="#6b74d6"/>
			<stop offset=".26" stop-color="#4c8fe5"/>
			<stop offset=".39" stop-color="#34a3f0"/>
			<stop offset=".52" stop-color="#22b2f9"/>
			<stop offset=".66" stop-color="#18bafd"/>
			<stop offset=".83" stop-color="#15bdff"/>
			<stop offset="1" stop-color="#28bad5"/>
		</linearGradient>
		<clipPath clipPathUnits="userSpaceOnUse" id="cp2">
			<path d="m-3 395.51h38.4v80.56h-38.4z"/>
		</clipPath>
		<clipPath clipPathUnits="userSpaceOnUse" id="cp3">
			<path d="m-2.98 395.51h44.69v57.54h-44.69z"/>
		</clipPath>
		<clipPath clipPathUnits="userSpaceOnUse" id="cp4">
			<path d="m83.38 395.51c-0.72 0-1.36 0.4-1.68 1.04l-27.83 56.5c-2.49 5.07-9.7 5.07-12.19 0l-27.9-56.48c-0.32-0.64-0.96-1.04-1.68-1.04h-13.22c-1.38 0-2.29 1.46-1.68 2.69l38.2 77.87c2.49 5.07 9.7 5.07 12.19 0l38.61-78.68c0.42-0.86-0.2-1.88-1.18-1.88h-1.64z"/>
		</clipPath>
		<linearGradient id="g2" x2="1" gradientUnits="userSpaceOnUse" gradientTransform="matrix(89.564,0,0,85.139,1.98,445.55)">
			<stop offset="0" stop-color="#9d4abe"/>
			<stop offset=".03" stop-color="#9155c4"/>
			<stop offset=".15" stop-color="#6b74d6"/>
			<stop offset=".26" stop-color="#4c8fe5"/>
			<stop offset=".39" stop-color="#34a3f0"/>
			<stop offset=".52" stop-color="#22b2f9"/>
			<stop offset=".66" stop-color="#18bafd"/>
			<stop offset=".83" stop-color="#15bdff"/>
			<stop offset="1" stop-color="#28bad5"/>
		</linearGradient>
		<clipPath clipPathUnits="userSpaceOnUse" id="cp5">
			<path d="m-3 395.51h38.4v80.56h-38.4z"/>
		</clipPath>
		<clipPath clipPathUnits="userSpaceOnUse" id="cp6">
			<path d="m-2.98 395.51h44.69v57.54h-44.69z"/>
		</clipPath>
	</defs>
	<style>
		.s0 { fill: #ffffff } 
		.s1 { fill: url(#g1) } 
		.s2 { fill: url(#g2) } 
		.s3 { fill: #15bdff } 
	</style>
	<path class="s0" d="m536.9 0h-36.1c-8.8 0-16.9 5.1-20.7 13l-95.1 197.8-0.1-0.2-25.3 52.7 0.1 0.2-25.3 52.7-126.4-263.4h36c8.9 0 16.9 5.1 20.7 13l82.6 170.9 25.3-52.7-66.6-137.9c-13.5-28.2-42-46.1-73.2-46.1h-100.8l25.2 52.8h0.1l151.7 316.1h50.6z"/>
	<filter id="f0">
		<feFlood flood-color="#ffffff" flood-opacity="1" />
		<feBlend mode="normal" in2="SourceGraphic"/>
		<feComposite in2="SourceAlpha" operator="in" />
	</filter>
	<g id="Folder 1" filter="url(#f0)">
		<g id="Clip-Path" clip-path="url(#cp1)">
			<g>
				<path fill-rule="evenodd" class="s1" d="m-3.4 395.5h90v85.6h-90z"/>
			</g>
		</g>
		<g style="opacity: .1">
			<g id="Clip-Path" clip-path="url(#cp2)">
				<g>
					<path class="s0" d="m35.4 476.1l-21.6-79.5c-0.3-0.7-1-1-1.6-1.1h-13.3c-1.4 0-2.3 1.5-1.7 2.7z"/>
				</g>
			</g>
		</g>
		<g style="opacity: .1">
			<g id="Clip-Path" clip-path="url(#cp3)">
				<g>
					<path class="s0" d="m41.7 453.1l-44.5-54.9c-0.6-1.3 0.2-2.6 1.5-2.7h13.5c0.7 0.1 1.3 0.5 1.6 1.1l27.9 56.5z"/>
				</g>
			</g>
		</g>
		<g id="Clip-Path" clip-path="url(#cp4)">
			<g>
				<path fill-rule="evenodd" class="s2" d="m-3.4 395.5h90v85.6h-90z"/>
			</g>
		</g>
		<g style="opacity: .1">
			<g id="Clip-Path" clip-path="url(#cp5)">
				<g>
					<path class="s0" d="m35.4 476.1l-21.6-79.5c-0.3-0.7-1-1-1.6-1.1h-13.3c-1.4 0-2.3 1.5-1.7 2.7z"/>
				</g>
			</g>
		</g>
		<g style="opacity: .1">
			<g id="Clip-Path" clip-path="url(#cp6)">
				<g>
					<path class="s0" d="m41.7 453.1l-44.5-54.9c-0.6-1.3 0.2-2.6 1.5-2.7h13.5c0.7 0.1 1.3 0.5 1.6 1.1l27.9 56.5z"/>
				</g>
			</g>
		</g>
		<path class="s3" d="m292.1 452.1c-6.7 16.4-23.5 27.7-42.6 26.1-20.4-1.8-36.8-18.6-38.1-39-1.5-24.3 17.8-44.6 41.8-44.6 17.6 0 32.7 10.9 38.9 26.3 0.7 1.7-0.2 3.6-2 4.2l-2.4 0.8c-1.6 0.5-3.2-0.3-3.9-1.8-5.2-12.8-18.3-21.6-33.2-20.5-15.6 1.2-28.5 13.6-30.3 29.2-2.2 19.9 13.4 36.8 32.8 36.8 13.8 0 25.6-8.5 30.6-20.5 0.6-1.5 2.3-2.3 3.9-1.8l2.4 0.8c1.9 0.4 2.8 2.3 2.1 4zm200.1-41.3c-8.3-10.7-21.7-17.3-36.6-16.1-20.6 1.6-37.1 18.2-38.7 38.7-1.9 24.7 17.7 45.4 42 45.4 13.5 0 25.5-6.4 33.2-16.3v13.3c0 1.5 1.2 2.6 2.6 2.6h3.6c1.5 0 2.6-1.2 2.6-2.6v-69.4c0-1.5-1.2-2.6-2.6-2.6h-3.6c-1.5 0-2.6 1.2-2.6 2.6v4.4zm-33.2 59.1c-18.3 0-33.2-14.9-33.2-33.2 0-18.3 14.9-33.2 33.2-33.2 18.3 0 33.2 14.9 33.2 33.2 0 18.3-14.9 33.2-33.2 33.2zm87.2 8.5h3.6c1.5 0 2.6-1.2 2.6-2.6v-69.4c0-1.5-1.2-2.6-2.6-2.6h-3.6c-1.5 0-2.6 1.2-2.6 2.6v69.4c0 1.5 1.2 2.6 2.6 2.6zm-191.4-80.4c-12-0.3-22.8 5.1-29.9 13.6v-26c0-1.5-1.2-2.6-2.6-2.6h-3.6c-1.5 0-2.6 1.2-2.6 2.6v90.2c0 1.5 1.2 2.6 2.6 2.6h3.6c1.5 0 2.6-1.2 2.6-2.6v-39.2c0-16.3 13.3-30 29.6-29.7 15.8 0.3 28.6 13.2 28.6 29.1v39.8c0 1.5 1.2 2.6 2.6 2.6h3.6c1.5 0 2.6-1.2 2.6-2.6v-39.1c0.1-20.8-16.3-38.3-37.1-38.7zm191.4-3.7h3.6c1.5 0 2.6-1.2 2.6-2.6v-6c0-1.5-1.2-2.6-2.6-2.6h-3.6c-1.5 0-2.6 1.2-2.6 2.6v6c0 1.4 1.2 2.6 2.6 2.6zm85.9 3.8c-12-0.3-22.8 5.1-29.9 13.6v-5.3c0-1.5-1.2-2.6-2.6-2.6h-3.6c-1.5 0-2.6 1.2-2.6 2.6v69.4c0 1.5 1.2 2.6 2.6 2.6h3.6c1.5 0 2.6-1.2 2.6-2.6v-39.1c0-16.3 13.3-30 29.6-29.7 15.8 0.3 28.6 13.2 28.6 29.1v39.7c0 1.5 1.2 2.6 2.6 2.6h3.6c1.5 0 2.6-1.2 2.6-2.6v-39c0.1-20.8-16.3-38.3-37.1-38.7zm-447.1 53.6c0.6-1.5-0.2-3.3-1.8-3.7l-3.1-1c-1.4-0.4-2.9 0.3-3.4 1.7-5 12.6-17 20.9-30.7 20.9-18.2 0-33.1-14.8-33.1-33.1 0-2.2 0.2-4.5 0.7-6.7 3.1-15.3 16.8-26.4 32.4-26.4 12.8 0 24.3 7.5 29.8 18.6 0.8 1.7-0.1 3.7-1.9 4l-26.4 5.5c-1.5 0.3-2.5 1.8-2.2 3.3l0.7 3.2c0.3 1.5 1.8 2.5 3.3 2.2l35.9-7.4c1.5-0.3 2.5-1.8 2.2-3.3l-0.3-1.6c-4-19.3-21.3-33.3-41.1-33.3-19.8 0-37.1 14.1-41.1 33.5q-0.9 4.2-0.9 8.4c0 23.1 18.8 41.9 41.9 41.9 17.6 0 32.9-10.6 39.1-26.7z"/>
	</g>
</svg>